# AST/ASF file generated using VICON BodyLanguage
# -----------------------------------------------
:version 1.10
:name VICON
:units
  mass 1.0
  length 0.45
  angle deg
:documentation
   .ast/.asf automatically generated from VICON data using
   VICON BodyBuilder and BodyLanguage model FoxedUp or BRILLIANT.MOD
:root
   order TX TY TZ RX RY RZ
   axis XYZ
   position 0 0 0  
   orientation 0 0 0 
:bonedata
  begin
     id 1 
     name lhipjoint
     direction 0.64773 -0.699417 0.302095 
     length 2.48597 
     axis 0 0 0  XYZ
  end
  begin
     id 2 
     name lfemur
     direction 0.34202 -0.939693 0  
     length 6.71947  
     axis 0 0 20  XYZ
    dof rx ry rz
    limits (-160.0 20.0)
           (-70.0 70.0)
           (-60.0 70.0)
  end
  begin
     id 3 
     name ltibia
     direction 0.34202 -0.939693 0   
     length 8.08777   
     axis 0 0 20   XYZ
    dof rx
    limits (-10.0 170.0)
  end
  begin
     id 4 
     name lfoot
     direction 0.0808503 -0.222134 0.971658   
     length 2.08264   
     axis -90 7.62852e-016 20   XYZ
    dof rx rz
    limits (-45.0 90.0)
           (-70.0 20.0)
  end
  begin
     id 5 
     name ltoes
     direction 1.53502e-011 -4.22007e-011 1   
     length 1.04662   
     axis -90 7.62852e-016 20   XYZ
    dof rx
    limits (-90.0 20.0)
  end
  begin
     id 6 
     name rhipjoint
     direction -0.610924 -0.726792 0.313919   
     length 2.39233  
     axis 0 0 0  XYZ 
  end
  begin
     id 7 
     name rfemur
     direction -0.34202 -0.939693 0   
     length 6.96955   
     axis 0 0 -20   XYZ
    dof rx ry rz
    limits (-160.0 20.0)
           (-70.0 70.0)
           (-70.0 60.0)
  end
  begin
     id 8 
     name rtibia
     direction -0.34202 -0.939693 0   
     length 8.19584   
     axis 0 0 -20   XYZ
    dof rx
    limits (-10.0 170.0)
 end
 begin
     id 9 
     name rfoot
     direction -0.077777 -0.213691 0.9738   
     length 2.07539  
     axis -90 -7.62852e-016 -20   XYZ
    dof rx rz
    limits (-45.0 90.0)
           (-20.0 70.0)
  end
  begin
     id 10 
     name rtoes
     direction -1.53558e-011 -4.22006e-011 1   
     length 1.04381   
     axis -90 -7.62852e-016 -20   XYZ
    dof rx
    limits (-90.0 20.0)
  end
  begin
     id 11 
     name lowerback
     direction -0.00971646 0.996074 0.0879841   
     length 1.67643   
     axis 0 0 0   XYZ
    dof rx ry rz
    limits (-20.0 45.0)
           (-30.0 30.0)
           (-30.0 30.0)
  end
  begin
     id 12 
     name upperback
     direction 0.0127391 0.991676 0.128127   
     length 1.63741   
     axis 0 0 0   XYZ
    dof rx ry rz
    limits (-20.0 45.0)
           (-30.0 30.0)
           (-30.0 30.0)
  end
  begin
     id 13 
     name thorax
     direction 0.0167583 0.996049 0.0872067   
     length 1.65931   
     axis 0 0 0   XYZ
    dof rx ry rz
    limits (-20.0 45.0)
           (-30.0 30.0)
           (-30.0 30.0)
  end
  begin
     id 14 
     name lowerneck
     direction -0.0317829 0.998312 0.0486079   
     length 1.79021   
     axis 0 0 0   XYZ
    dof rx ry rz
    limits (-20.0 45.0)
           (-30.0 30.0)
           (-30.0 30.0)
  end
  begin
     id 15 
     name upperneck
     direction 0.0896851 0.972452 -0.215159   
     length 1.78797   
     axis 0 0 0   XYZ
    dof rx ry rz
    limits (-20.0 45.0)
           (-30.0 30.0)
           (-30.0 30.0)
  end
  begin
     id 16
     name head
     direction 0.0310949 0.996503 -0.0775582  
     length 1.81549  
     axis 0 0 0   XYZ
    dof rx ry rz
    limits (-20.0 45.0)
           (-30.0 30.0)
           (-30.0 30.0)
  end
  begin
     id 17 
     name lclavicle
     direction 0.853638 0.502051 -0.138733  
     length 3.31627  
     axis 0 0 0   XYZ
    dof ry rz
    limits (-20.0 10.0)
           (0.0 20.0)
  end
  begin
     id 18 
     name lhumerus
     direction 1 -4.48962e-011 -1.41788e-018   
     length 5.54893   
     axis 180 -30 -90   XYZ
    dof rx ry rz
    limits (-60.0 90.0)
           (-90.0 90.0)
           (-90.0 90.0)
  end
  begin
     id 19
     name lradius
     direction 1 -4.48962e-011 -4.95754e-027   
     length 3.02898   
     axis 180 -30 -90   XYZ
    dof rx
    limits (-10.0 170.0)
  end
  begin
     id 20
     name lwrist
     direction 1 -4.48952e-011 -1.03764e-026   
     length 1.51449   
     axis 9.09556e-015 90 90   XYZ
    dof ry
    limits (-180.0 0.0)
 end
  begin
     id 21 
     name lhand
     direction 1 -4.4902e-011 -2.07528e-026   
     length 0.640951   
     axis 1.3242e-014 90 90   XYZ
    dof rx rz
    limits (-90.0 90.0)
           (-45.0 45.0)
  end
  begin
     id 22 
     name lfingers
     direction 1 -4.49014e-011 -4.15056e-026   
     length 0.516751   
     axis 2.64841e-014 90 90   XYZ
    dof rx
    limits (0.0 90.0)
  end
  begin
     id 23
     name lthumb
     direction 0.707107 -6.35008e-011 0.707107   
     length 0.741954   
     axis -90 45 2.85299e-015   XYZ
    dof rx rz
    limits (-45.0 45.0)
           (-45.0 45.0)
  end
  begin
     id 24 
     name rclavicle
     direction -0.888531 0.455324 -0.0565039   
     length 3.20126  
     axis 0 0 0   XYZ 
    dof ry rz
    limits (-10.0 20.0)
           (-20.0 0.0)
  end
  begin
     id 25 
     name rhumerus
     direction -1 -4.48946e-011 -8.98298e-028  
     length 5.3519   
     axis 180 30 90   XYZ
    dof rx ry rz
    limits (-90.0 60.0)
           (-90.0 90.0)
           (-90.0 90.0)
  end
  begin
     id 26 
     name rradius
     direction -1 -4.4899e-011 -3.18779e-027   
     length 3.02531   
     axis 180 30 90   XYZ
    dof rx
    limits (-10.0 170.0)
  end
  begin
     id 27 
     name rwrist
     direction -1 -4.4897e-011 -1.03764e-026   
     length 1.51266   
     axis 9.09556e-015 -90 -90   XYZ
    dof ry
    limits (-180.0 0.0)
  end
  begin
     id 28
     name rhand
     direction -1 -4.48941e-011 -2.07528e-026   
     length 0.78389   
     axis 1.3242e-014 -90 -90   XYZ
    dof rx rz
    limits (-90.0 90.0)
           (-45.0 45.0)
  end
  begin
     id 29
     name rfingers
     direction -1 -4.49012e-011 -4.15056e-026   
     length 0.631992   
     axis 2.64841e-014 -90 -90   XYZ
    dof rx
    limits (0.0 90.0)
  end
  begin
     id 30
     name rthumb
     direction -0.707107 -6.3496e-011 0.707107   
     length 0.907418   
     axis -90 -45 -2.85299e-015   XYZ
    dof rx rz
    limits (-45.0 45.0)
           (-45.0 45.0)
  end
:hierarchy
  begin
    root lhipjoint rhipjoint lowerback
    lhipjoint lfemur
    lfemur ltibia
    ltibia lfoot
    lfoot ltoes
    rhipjoint rfemur
    rfemur rtibia
    rtibia rfoot
    rfoot rtoes
    lowerback upperback
    upperback thorax
    thorax lowerneck lclavicle rclavicle
    lowerneck upperneck
    upperneck head
    lclavicle lhumerus
    lhumerus lradius
    lradius lwrist
    lwrist lhand lthumb
    lhand lfingers
    rclavicle rhumerus
    rhumerus rradius
    rradius rwrist
    rwrist rhand rthumb
    rhand rfingers
  end

#!OML:ASF E:\Style3\Style3.ASF
:FULLY-SPECIFIED
:DEGREES
900
root -0.120597 17.8303 0.754276 -165.887 81.9098 179.516
lowerback -7.5377 -4.35223 -0.0751151
upperback -10.009 -5.21441 2.43742
thorax -6.01817 -2.29701 2.44505
lowerneck -12.7902 5.88241 -0.134033
upperneck 20.2379 6.43983 9.59088
head 8.03996 4.13754 3.91055
rclavicle -6.17226e-014 2.26615e-014
rhumerus -101.455 47.1589 -121.15
rradius 115.685
rwrist -0.695488
rhand 0.322926 31.1262
rfingers 7.12502
rthumb 25.8996 2.87029
lclavicle -6.17226e-014 2.26615e-014
lhumerus 51.2485 -41.356 32.0583
lradius 110.552
lwrist -12.0567
lhand -17.5017 11.6884
lfingers 7.12502
lthumb 8.75121 41.487
rfemur -14.4881 9.14931 18.6438
rtibia 16.7018
rfoot -16.4732 -25.0508
rtoes -12.0749
lfemur -9.79716 -30.6708 -10.0256
ltibia 3.65764e-014
lfoot -6.18292 25.9401
ltoes -20.5441
901
root -0.109565 17.8292 0.753755 -165.575 81.8181 179.713
lowerback -7.78046 -4.23984 0.00191767
upperback -10.0815 -5.05485 2.40261
thorax -5.97773 -2.21827 2.35629
lowerneck -12.5978 6.00534 0.0555094
upperneck 20.0502 6.6007 9.51173
head 7.94489 4.21354 3.85114
rclavicle 6.62947e-014 -3.97569e-016
rhumerus -101.328 46.9322 -121.009
rradius 115.688
rwrist -0.739104
rhand 0.373712 31.0384
rfingers 7.12502
rthumb 25.9483 2.78956
lclavicle 6.62947e-014 -3.97569e-016
lhumerus 52.6035 -39.4009 30.2919
lradius 111.781
lwrist -12.653
lhand -19.17 11.3666
lfingers 7.12502
lthumb 7.14103 41.2261
rfemur -14.4992 9.11694 18.6844
rtibia 16.5907
rfoot -16.395 -25.1305
rtoes -12.2737
lfemur -9.92826 -30.7314 -9.90204
ltibia 0
lfoot -6.18718 25.9189
ltoes -20.6282
902
root -0.101741 17.8295 0.752791 -165.223 81.6823 179.921
lowerback -7.94239 -4.22297 0.0629497
upperback -10.2098 -5.01438 2.47027
thorax -6.02826 -2.19146 2.38886
lowerneck -12.4958 6.15724 0.155737
upperneck 20.0638 6.81502 9.40727
head 7.92759 4.31142 3.81622
rclavicle 1.96797e-014 -2.62396e-014
rhumerus -101.437 46.9238 -121.062
rradius 115.664
rwrist -0.672978
rhand 0.306387 31.0062
rfingers 7.12502
rthumb 25.8838 2.74797
lclavicle 1.96797e-014 -2.62396e-014
lhumerus 53.5261 -37.3214 28.9659
lradius 113.102
lwrist -13.1876
lhand -20.4861 10.7777
lfingers 7.12502
lthumb 5.87049 40.6763
rfemur -14.5417 9.02202 18.7282
rtibia 16.4653
rfoot -16.396 -25.1313
rtoes -12.0883
lfemur -10.134 -30.826 -9.73119
ltibia 1.11319e-014
lfoot -6.15235 25.9059
ltoes -20.7931
903
root -0.0923408 17.8301 0.750406 -164.996 81.5074 180.043
lowerback -8.09758 -4.16682 0.167769
upperback -10.3195 -4.92674 2.47677
thorax -6.07347 -2.14698 2.33486
lowerneck -12.5556 6.21942 0.191908
upperneck 20.2709 6.88439 9.4282
head 8.00446 4.35651 3.83685
rclavicle 6.62947e-014 -5.56597e-015
rhumerus -101.508 46.8036 -121.105
rradius 115.687
rwrist -0.619107
rhand 0.26949 30.9339
rfingers 7.12502
rthumb 25.8485 2.6705
lclavicle 6.62947e-014 -5.56597e-015
lhumerus 54.4586 -35.4531 27.7827
lradius 114.506
lwrist -14.1149
lhand -21.1277 10.3684
lfingers 7.12502
lthumb 5.25109 40.2833
rfemur -14.5098 9.05495 18.7632
rtibia 16.3066
rfoot -16.3748 -25.3284
rtoes -12.2474
lfemur -10.2933 -30.9698 -9.59438
ltibia -1.90833e-014
lfoot -6.14081 25.9387
ltoes -20.9561
904
root -0.0808017 17.8308 0.748024 -165.018 81.3338 179.967
lowerback -8.28866 -4.10862 0.233653
upperback -10.3689 -4.84097 2.48177
thorax -6.02932 -2.10411 2.29516
lowerneck -12.6338 6.291 0.210863
upperneck 20.4529 6.98061 9.39225
head 8.07644 4.40598 3.84361
rclavicle 4.13472e-014 3.69739e-014
rhumerus -101.55 46.7589 -121.09
rradius 115.742
rwrist -0.72337
rhand 0.231137 30.9368
rfingers 7.12502
rthumb 25.8117 2.66806
lclavicle 4.13472e-014 3.69739e-014
lhumerus 55.4487 -33.6709 26.499
lradius 115.797
lwrist -14.802
lhand -21.2138 10.4757
lfingers 7.12502
lthumb 5.16791 40.3927
rfemur -14.4125 9.24398 18.7568
rtibia 16.1623
rfoot -16.4897 -25.6234
rtoes -12.2575
lfemur -10.3706 -31.1316 -9.53038
ltibia -4.77083e-015
lfoot -6.14567 25.947
ltoes -21.1737
905
root -0.0705465 17.8315 0.748035 -164.555 81.1648 180.378
lowerback -8.45214 -4.0593 0.358547
upperback -10.4103 -4.76975 2.50664
thorax -5.99463 -2.07202 2.24512
lowerneck -12.6719 6.39949 0.240627
upperneck 20.5561 7.1206 9.40125
head 8.11133 4.47909 3.86193
rclavicle -1.46107e-014 3.10104e-014
rhumerus -101.497 46.8396 -121.064
rradius 115.755
rwrist -0.907915
rhand 0.251098 30.924
rfingers 7.12502
rthumb 25.8309 2.65804
lclavicle -1.46107e-014 3.10104e-014
lhumerus 56.4704 -31.8785 24.9504
lradius 116.86
lwrist -15.1164
lhand -21.33 10.7829
lfingers 7.12502
lthumb 5.05571 40.7026
rfemur -14.3165 9.45916 18.8358
rtibia 16.0016
rfoot -16.5659 -25.9071
rtoes -11.8811
lfemur -10.4636 -31.2645 -9.37172
ltibia 7.95139e-015
lfoot -6.00962 25.962
ltoes -21.4316
906
root -0.062102 17.8317 0.748273 -164.509 80.9925 180.35
lowerback -8.57945 -4.03125 0.387176
upperback -10.459 -4.72392 2.52638
thorax -5.9794 -2.04637 2.24493
lowerneck -12.5873 6.51039 0.397572
upperneck 20.5095 7.27212 9.27303
head 8.08515 4.54742 3.80234
rclavicle 4.48259e-014 1.51076e-014
rhumerus -101.387 46.8692 -120.995
rradius 115.751
rwrist -1.01401
rhand 0.345764 30.9765
rfingers 7.12502
rthumb 25.9215 2.72377
lclavicle 4.48259e-014 1.51076e-014
lhumerus 57.3548 -30.0726 23.4406
lradius 117.869
lwrist -15.4755
lhand -21.1703 10.469
lfingers 7.12502
lthumb 5.20996 40.3849
rfemur -14.2716 9.4245 18.8691
rtibia 15.8804
rfoot -16.694 -26.0074
rtoes -11.4058
lfemur -10.5888 -31.4139 -9.2602
ltibia -3.81667e-014
lfoot -5.93952 25.9598
ltoes -21.2374
